# Blender v2.80 (sub 75) OBJ File: ''
# www.blender.org
mtllib Teleporter.mtl
o Cylinder
v 0.000000 0.004395 -2.593647
v -0.000000 0.480363 -1.955482
v 0.505995 0.004395 -2.543811
v 0.381496 0.480363 -1.917908
v 0.992546 0.004395 -2.396217
v 0.748331 0.480363 -1.806630
v 1.440953 0.004395 -2.156538
v 1.086408 0.480363 -1.625924
v 1.833985 0.004395 -1.833985
v 1.382735 0.480363 -1.382735
v 2.156538 0.004395 -1.440953
v 1.625924 0.480363 -1.086408
v 2.396217 0.004395 -0.992546
v 1.806630 0.480363 -0.748331
v 2.543811 0.004395 -0.505995
v 1.917908 0.480363 -0.381496
v 2.593647 0.004395 -0.000000
v 1.955482 0.480363 -0.000000
v 2.543811 0.004395 0.505995
v 1.917908 0.480363 0.381495
v 2.396217 0.004395 0.992545
v 1.806630 0.480363 0.748330
v 2.156538 0.004395 1.440953
v 1.625924 0.480363 1.086408
v 1.833985 0.004395 1.833985
v 1.382735 0.480363 1.382735
v 1.440953 0.004395 2.156538
v 1.086408 0.480363 1.625924
v 0.992545 0.004395 2.396217
v 0.748330 0.480363 1.806630
v 0.505995 0.004395 2.543811
v 0.381495 0.480363 1.917908
v -0.000001 0.004395 2.593647
v -0.000001 0.480363 1.955482
v -0.505996 0.004395 2.543810
v -0.381496 0.480363 1.917908
v -0.992547 0.004395 2.396217
v -0.748332 0.480363 1.806630
v -1.440954 0.004395 2.156538
v -1.086409 0.480363 1.625923
v -1.833986 0.004395 1.833984
v -1.382736 0.480363 1.382734
v -2.156539 0.004395 1.440951
v -1.625925 0.480363 1.086407
v -2.396218 0.004395 0.992544
v -1.806631 0.480363 0.748329
v -2.543811 0.004395 0.505993
v -1.917908 0.480363 0.381494
v -2.593647 0.004395 -0.000003
v -1.955482 0.480363 -0.000002
v -2.543810 0.004395 -0.505998
v -1.917908 0.480363 -0.381498
v -2.396216 0.004395 -0.992548
v -1.806629 0.480363 -0.748333
v -2.156537 0.004395 -1.440956
v -1.625923 0.480363 -1.086410
v -1.833983 0.004395 -1.833987
v -1.382733 0.480363 -1.382736
v -1.440950 0.004395 -2.156540
v -1.086405 0.480363 -1.625926
v -0.992542 0.004395 -2.396219
v -0.748328 0.480363 -1.806631
v -0.505992 0.004395 -2.543811
v -0.381493 0.480363 -1.917909
v 0.460260 0.480363 -2.313886
v 0.000000 0.480363 -2.359217
v 0.902833 0.480363 -2.179633
v 1.310711 0.480363 -1.961617
v 1.668218 0.480363 -1.668218
v 1.961618 0.480363 -1.310711
v 2.179632 0.480363 -0.902833
v 2.313886 0.480363 -0.460261
v 2.359217 0.480363 -0.000000
v 2.313886 0.480363 0.460260
v 2.179633 0.480363 0.902833
v 1.961618 0.480363 1.310711
v 1.668218 0.480363 1.668218
v 1.310711 0.480363 1.961617
v 0.902833 0.480363 2.179633
v 0.460260 0.480363 2.313886
v -0.000001 0.480363 2.359217
v -0.460261 0.480363 2.313885
v -0.902834 0.480363 2.179632
v -1.310712 0.480363 1.961617
v -1.668220 0.480363 1.668217
v -1.961618 0.480363 1.310709
v -2.179633 0.480363 0.902832
v -2.313886 0.480363 0.460258
v -2.359217 0.480363 -0.000002
v -2.313885 0.480363 -0.460263
v -2.179631 0.480363 -0.902836
v -1.961616 0.480363 -1.310713
v -1.668216 0.480363 -1.668221
v -1.310708 0.480363 -1.961619
v -0.902830 0.480363 -2.179634
v -0.460257 0.480363 -2.313886
v 0.381496 0.342914 -1.917908
v -0.000000 0.342914 -1.955482
v 0.748331 0.342914 -1.806630
v 1.086408 0.342914 -1.625924
v 1.382735 0.342914 -1.382735
v 1.625924 0.342914 -1.086408
v 1.806630 0.342914 -0.748331
v 1.917908 0.342914 -0.381496
v 1.955482 0.342914 -0.000000
v 1.917908 0.342914 0.381495
v 1.806630 0.342914 0.748330
v 1.625924 0.342914 1.086408
v 1.382735 0.342914 1.382735
v 1.086408 0.342914 1.625924
v 0.748330 0.342914 1.806630
v 0.381495 0.342914 1.917908
v -0.000001 0.342914 1.955482
v -0.381496 0.342914 1.917908
v -0.748332 0.342914 1.806630
v -1.086409 0.342914 1.625923
v -1.382736 0.342914 1.382734
v -1.625925 0.342914 1.086407
v -1.806631 0.342914 0.748329
v -1.917908 0.342914 0.381494
v -1.955482 0.342914 -0.000002
v -1.917908 0.342914 -0.381498
v -1.806629 0.342914 -0.748333
v -1.625923 0.342914 -1.086410
v -1.382733 0.342914 -1.382736
v -1.086405 0.342914 -1.625926
v -0.748328 0.342914 -1.806631
v -0.381493 0.342914 -1.917909
vt 1.000000 0.500000
vt 1.000000 1.000000
vt 0.968750 1.000000
vt 0.968750 0.500000
vt 0.937500 1.000000
vt 0.937500 0.500000
vt 0.906250 1.000000
vt 0.906250 0.500000
vt 0.875000 1.000000
vt 0.875000 0.500000
vt 0.843750 1.000000
vt 0.843750 0.500000
vt 0.812500 1.000000
vt 0.812500 0.500000
vt 0.781250 1.000000
vt 0.781250 0.500000
vt 0.750000 1.000000
vt 0.750000 0.500000
vt 0.718750 1.000000
vt 0.718750 0.500000
vt 0.687500 1.000000
vt 0.687500 0.500000
vt 0.656250 1.000000
vt 0.656250 0.500000
vt 0.625000 1.000000
vt 0.625000 0.500000
vt 0.593750 1.000000
vt 0.593750 0.500000
vt 0.562500 1.000000
vt 0.562500 0.500000
vt 0.531250 1.000000
vt 0.531250 0.500000
vt 0.500000 1.000000
vt 0.500000 0.500000
vt 0.468750 1.000000
vt 0.468750 0.500000
vt 0.437500 1.000000
vt 0.437500 0.500000
vt 0.406250 1.000000
vt 0.406250 0.500000
vt 0.375000 1.000000
vt 0.375000 0.500000
vt 0.343750 1.000000
vt 0.343750 0.500000
vt 0.312500 1.000000
vt 0.312500 0.500000
vt 0.281250 1.000000
vt 0.281250 0.500000
vt 0.250000 1.000000
vt 0.250000 0.500000
vt 0.218750 1.000000
vt 0.218750 0.500000
vt 0.187500 1.000000
vt 0.187500 0.500000
vt 0.156250 1.000000
vt 0.156250 0.500000
vt 0.125000 1.000000
vt 0.125000 0.500000
vt 0.093750 1.000000
vt 0.093750 0.500000
vt 0.062500 1.000000
vt 0.062500 0.500000
vt 0.139481 0.084597
vt 0.173873 0.066214
vt 0.173873 0.066214
vt 0.139481 0.084597
vt 0.031250 1.000000
vt 0.031250 0.500000
vt 0.000000 1.000000
vt 0.000000 0.500000
vt 0.750000 0.490000
vt 0.796822 0.485388
vt 0.841844 0.471731
vt 0.883337 0.449553
vt 0.919706 0.419706
vt 0.949553 0.383337
vt 0.971731 0.341844
vt 0.985388 0.296822
vt 0.990000 0.250000
vt 0.985388 0.203178
vt 0.971731 0.158156
vt 0.949553 0.116663
vt 0.919706 0.080294
vt 0.883337 0.050447
vt 0.841844 0.028269
vt 0.796822 0.014612
vt 0.750000 0.010000
vt 0.703178 0.014612
vt 0.658156 0.028269
vt 0.616663 0.050447
vt 0.580294 0.080294
vt 0.550447 0.116663
vt 0.528269 0.158156
vt 0.514611 0.203179
vt 0.510000 0.250000
vt 0.514612 0.296822
vt 0.528269 0.341844
vt 0.550447 0.383337
vt 0.580295 0.419706
vt 0.616663 0.449553
vt 0.658156 0.471731
vt 0.703179 0.485389
vt 0.250000 0.448929
vt 0.288809 0.445106
vt 0.296822 0.485388
vt 0.250000 0.490000
vt 0.326127 0.433786
vt 0.341844 0.471731
vt 0.360519 0.415403
vt 0.383337 0.449553
vt 0.390664 0.390664
vt 0.419706 0.419706
vt 0.415403 0.360519
vt 0.449553 0.383337
vt 0.433786 0.326127
vt 0.471731 0.341844
vt 0.445106 0.288809
vt 0.485388 0.296822
vt 0.448929 0.250000
vt 0.490000 0.250000
vt 0.445106 0.211191
vt 0.485388 0.203178
vt 0.433786 0.173873
vt 0.471731 0.158156
vt 0.415403 0.139481
vt 0.449553 0.116663
vt 0.390664 0.109336
vt 0.419706 0.080294
vt 0.360519 0.084597
vt 0.383337 0.050447
vt 0.326127 0.066214
vt 0.341844 0.028269
vt 0.288809 0.054894
vt 0.296822 0.014612
vt 0.250000 0.051072
vt 0.250000 0.010000
vt 0.211191 0.054894
vt 0.203178 0.014612
vt 0.158156 0.028269
vt 0.116663 0.050447
vt 0.109336 0.109336
vt 0.080294 0.080294
vt 0.084597 0.139481
vt 0.050447 0.116663
vt 0.066214 0.173873
vt 0.028269 0.158156
vt 0.054894 0.211191
vt 0.014611 0.203179
vt 0.051071 0.250000
vt 0.010000 0.250000
vt 0.054894 0.288809
vt 0.014612 0.296822
vt 0.066214 0.326127
vt 0.028269 0.341844
vt 0.084597 0.360519
vt 0.050447 0.383337
vt 0.109336 0.390664
vt 0.080295 0.419706
vt 0.139481 0.415403
vt 0.116663 0.449553
vt 0.173874 0.433786
vt 0.158156 0.471731
vt 0.211191 0.445106
vt 0.203179 0.485389
vt 0.288809 0.445106
vt 0.250000 0.448929
vt 0.211191 0.445106
vt 0.173874 0.433786
vt 0.139481 0.415403
vt 0.109336 0.390664
vt 0.084597 0.360519
vt 0.066214 0.326127
vt 0.054894 0.288809
vt 0.051071 0.250000
vt 0.054894 0.211191
vt 0.066214 0.173873
vt 0.084597 0.139481
vt 0.109336 0.109336
vt 0.211191 0.054894
vt 0.250000 0.051072
vt 0.288809 0.054894
vt 0.326127 0.066214
vt 0.360519 0.084597
vt 0.390664 0.109336
vt 0.415403 0.139481
vt 0.433786 0.173873
vt 0.445106 0.211191
vt 0.448929 0.250000
vt 0.445106 0.288809
vt 0.433786 0.326127
vt 0.415403 0.360519
vt 0.390664 0.390664
vt 0.360519 0.415403
vt 0.326127 0.433786
vn 0.0880 0.4401 -0.8936
vn 0.2607 0.4401 -0.8593
vn 0.4233 0.4401 -0.7919
vn 0.5696 0.4401 -0.6941
vn 0.6941 0.4401 -0.5696
vn 0.7919 0.4401 -0.4233
vn 0.8593 0.4401 -0.2607
vn 0.8936 0.4401 -0.0880
vn 0.8936 0.4401 0.0880
vn 0.8593 0.4401 0.2607
vn 0.7919 0.4401 0.4233
vn 0.6941 0.4401 0.5696
vn 0.5696 0.4401 0.6941
vn 0.4233 0.4401 0.7919
vn 0.2607 0.4401 0.8593
vn 0.0880 0.4401 0.8936
vn -0.0880 0.4401 0.8936
vn -0.2607 0.4401 0.8593
vn -0.4233 0.4401 0.7919
vn -0.5696 0.4401 0.6941
vn -0.6941 0.4401 0.5696
vn -0.7919 0.4401 0.4233
vn -0.8593 0.4401 0.2607
vn -0.8936 0.4401 0.0880
vn -0.8936 0.4401 -0.0880
vn -0.8593 0.4401 -0.2607
vn -0.7919 0.4401 -0.4233
vn -0.6941 0.4401 -0.5696
vn -0.5696 0.4401 -0.6941
vn -0.4233 0.4401 -0.7919
vn 0.4714 0.0000 -0.8819
vn -0.2607 0.4401 -0.8593
vn -0.0880 0.4401 -0.8936
vn 0.0000 -1.0000 0.0000
vn 0.0000 1.0000 0.0000
vn -0.8819 0.0000 0.4714
vn 0.6344 0.0000 -0.7730
vn -0.9569 0.0000 0.2903
vn 0.7730 0.0000 -0.6344
vn -0.9952 0.0000 0.0980
vn 0.8819 0.0000 -0.4714
vn -0.9952 0.0000 -0.0980
vn 0.9569 0.0000 -0.2903
vn -0.9569 0.0000 -0.2903
vn 0.9952 0.0000 -0.0980
vn -0.8819 0.0000 -0.4714
vn 0.9952 0.0000 0.0980
vn -0.7730 0.0000 -0.6344
vn 0.9569 0.0000 0.2903
vn -0.6344 0.0000 -0.7730
vn 0.8819 0.0000 0.4714
vn -0.4714 0.0000 -0.8819
vn -0.0980 0.0000 0.9952
vn 0.7730 0.0000 0.6344
vn -0.2903 0.0000 -0.9569
vn -0.2903 0.0000 0.9569
vn 0.6344 0.0000 0.7730
vn -0.0980 0.0000 -0.9952
vn -0.4714 0.0000 0.8819
vn 0.4714 0.0000 0.8819
vn 0.0980 -0.0000 -0.9952
vn -0.6344 0.0000 0.7730
vn 0.2903 0.0000 0.9569
vn 0.2903 0.0000 -0.9569
vn -0.7730 0.0000 0.6344
vn 0.0980 -0.0000 0.9952
usemtl None
s off
f 1/1/1 66/2/1 65/3/1 3/4/1
f 3/4/2 65/3/2 67/5/2 5/6/2
f 5/6/3 67/5/3 68/7/3 7/8/3
f 7/8/4 68/7/4 69/9/4 9/10/4
f 9/10/5 69/9/5 70/11/5 11/12/5
f 11/12/6 70/11/6 71/13/6 13/14/6
f 13/14/7 71/13/7 72/15/7 15/16/7
f 15/16/8 72/15/8 73/17/8 17/18/8
f 17/18/9 73/17/9 74/19/9 19/20/9
f 19/20/10 74/19/10 75/21/10 21/22/10
f 21/22/11 75/21/11 76/23/11 23/24/11
f 23/24/12 76/23/12 77/25/12 25/26/12
f 25/26/13 77/25/13 78/27/13 27/28/13
f 27/28/14 78/27/14 79/29/14 29/30/14
f 29/30/15 79/29/15 80/31/15 31/32/15
f 31/32/16 80/31/16 81/33/16 33/34/16
f 33/34/17 81/33/17 82/35/17 35/36/17
f 35/36/18 82/35/18 83/37/18 37/38/18
f 37/38/19 83/37/19 84/39/19 39/40/19
f 39/40/20 84/39/20 85/41/20 41/42/20
f 41/42/21 85/41/21 86/43/21 43/44/21
f 43/44/22 86/43/22 87/45/22 45/46/22
f 45/46/23 87/45/23 88/47/23 47/48/23
f 47/48/24 88/47/24 89/49/24 49/50/24
f 49/50/25 89/49/25 90/51/25 51/52/25
f 51/52/26 90/51/26 91/53/26 53/54/26
f 53/54/27 91/53/27 92/55/27 55/56/27
f 55/56/28 92/55/28 93/57/28 57/58/28
f 57/58/29 93/57/29 94/59/29 59/60/29
f 59/60/30 94/59/30 95/61/30 61/62/30
f 40/63/31 38/64/31 115/65/31 116/66/31
f 61/62/32 95/61/32 96/67/32 63/68/32
f 63/68/33 96/67/33 66/69/33 1/70/33
f 1/71/34 3/72/34 5/73/34 7/74/34 9/75/34 11/76/34 13/77/34 15/78/34 17/79/34 19/80/34 21/81/34 23/82/34 25/83/34 27/84/34 29/85/34 31/86/34 33/87/34 35/88/34 37/89/34 39/90/34 41/91/34 43/92/34 45/93/34 47/94/34 49/95/34 51/96/34 53/97/34 55/98/34 57/99/34 59/100/34 61/101/34 63/102/34
f 2/103/35 4/104/35 65/105/35 66/106/35
f 4/104/35 6/107/35 67/108/35 65/105/35
f 6/107/35 8/109/35 68/110/35 67/108/35
f 8/109/35 10/111/35 69/112/35 68/110/35
f 10/111/35 12/113/35 70/114/35 69/112/35
f 12/113/35 14/115/35 71/116/35 70/114/35
f 14/115/35 16/117/35 72/118/35 71/116/35
f 16/117/35 18/119/35 73/120/35 72/118/35
f 18/119/35 20/121/35 74/122/35 73/120/35
f 20/121/35 22/123/35 75/124/35 74/122/35
f 22/123/35 24/125/35 76/126/35 75/124/35
f 24/125/35 26/127/35 77/128/35 76/126/35
f 26/127/35 28/129/35 78/130/35 77/128/35
f 28/129/35 30/131/35 79/132/35 78/130/35
f 30/131/35 32/133/35 80/134/35 79/132/35
f 32/133/35 34/135/35 81/136/35 80/134/35
f 34/135/35 36/137/35 82/138/35 81/136/35
f 36/137/35 38/64/35 83/139/35 82/138/35
f 38/64/35 40/63/35 84/140/35 83/139/35
f 40/63/35 42/141/35 85/142/35 84/140/35
f 42/141/35 44/143/35 86/144/35 85/142/35
f 44/143/35 46/145/35 87/146/35 86/144/35
f 46/145/35 48/147/35 88/148/35 87/146/35
f 48/147/35 50/149/35 89/150/35 88/148/35
f 50/149/35 52/151/35 90/152/35 89/150/35
f 52/151/35 54/153/35 91/154/35 90/152/35
f 54/153/35 56/155/35 92/156/35 91/154/35
f 56/155/35 58/157/35 93/158/35 92/156/35
f 58/157/35 60/159/35 94/160/35 93/158/35
f 60/159/35 62/161/35 95/162/35 94/160/35
f 62/161/35 64/163/35 96/164/35 95/162/35
f 64/163/35 2/103/35 66/106/35 96/164/35
f 97/165/35 98/166/35 128/167/35 127/168/35 126/169/35 125/170/35 124/171/35 123/172/35 122/173/35 121/174/35 120/175/35 119/176/35 118/177/35 117/178/35 116/66/35 115/65/35 114/179/35 113/180/35 112/181/35 111/182/35 110/183/35 109/184/35 108/185/35 107/186/35 106/187/35 105/188/35 104/189/35 103/190/35 102/191/35 101/192/35 100/193/35 99/194/35
f 14/115/36 12/113/36 102/191/36 103/190/36
f 42/141/37 40/63/37 116/66/37 117/178/37
f 16/117/38 14/115/38 103/190/38 104/189/38
f 44/143/39 42/141/39 117/178/39 118/177/39
f 18/119/40 16/117/40 104/189/40 105/188/40
f 46/145/41 44/143/41 118/177/41 119/176/41
f 20/121/42 18/119/42 105/188/42 106/187/42
f 48/147/43 46/145/43 119/176/43 120/175/43
f 22/123/44 20/121/44 106/187/44 107/186/44
f 50/149/45 48/147/45 120/175/45 121/174/45
f 24/125/46 22/123/46 107/186/46 108/185/46
f 52/151/47 50/149/47 121/174/47 122/173/47
f 26/127/48 24/125/48 108/185/48 109/184/48
f 54/153/49 52/151/49 122/173/49 123/172/49
f 28/129/50 26/127/50 109/184/50 110/183/50
f 56/155/51 54/153/51 123/172/51 124/171/51
f 30/131/52 28/129/52 110/183/52 111/182/52
f 4/104/53 2/103/53 98/166/53 97/165/53
f 58/157/54 56/155/54 124/171/54 125/170/54
f 32/133/55 30/131/55 111/182/55 112/181/55
f 6/107/56 4/104/56 97/165/56 99/194/56
f 60/159/57 58/157/57 125/170/57 126/169/57
f 34/135/58 32/133/58 112/181/58 113/180/58
f 8/109/59 6/107/59 99/194/59 100/193/59
f 62/161/60 60/159/60 126/169/60 127/168/60
f 36/137/61 34/135/61 113/180/61 114/179/61
f 10/111/62 8/109/62 100/193/62 101/192/62
f 64/163/63 62/161/63 127/168/63 128/167/63
f 38/64/64 36/137/64 114/179/64 115/65/64
f 12/113/65 10/111/65 101/192/65 102/191/65
f 2/103/66 64/163/66 128/167/66 98/166/66
