# WaveFront *.obj file (generated by CINEMA 4D)

mtllib ./Sapin.mtl

v 0 400 0
v 28 400 0
v 56 400 0
v 84 400 0
v 73.5 425 0
v 63 450 0
v 52.5 475 0
v 42 500 0
v 31.5 525 0
v 21 550 0
v 10.5 575 0
v 0 600 0
v 14 400 -24.24871063232422
v 28 400 -48.49742126464844
v 42 400 -72.74613189697266
v 36.75 425 -63.65286636352539
v 31.5 450 -54.55960083007812
v 26.25 475 -45.46633529663086
v 21 500 -36.37306594848633
v 15.75 525 -27.27980041503906
v 10.5 550 -18.18653297424316
v 5.25 575 -9.09326648712158
v -14 400 -24.24871063232422
v -28 400 -48.49742126464844
v -42 400 -72.74613189697266
v -36.75 425 -63.65286636352539
v -31.5 450 -54.55960083007812
v -26.25 475 -45.46633529663086
v -21 500 -36.37306594848633
v -15.75 525 -27.27980041503906
v -10.5 550 -18.18653297424316
v -5.25 575 -9.09326648712158
v -28 400 -0
v -56 400 -0.00000000000001
v -84 400 -0.00000000000001
v -73.5 425 -0.00000000000001
v -63 450 -0.00000000000001
v -52.5 475 -0.00000000000001
v -42 500 -0.00000000000001
v -31.5 525 -0
v -21 550 -0
v -10.5 575 -0
v -14 400 24.24871063232422
v -28 400 48.49742126464844
v -42 400 72.74613189697266
v -36.75 425 63.65286636352539
v -31.5 450 54.55960083007812
v -26.25 475 45.46633529663086
v -21 500 36.37306594848633
v -15.75 525 27.27980041503906
v -10.5 550 18.18653297424316
v -5.25 575 9.09326648712158
v 14 400 24.24871063232422
v 28 400 48.49742126464844
v 42 400 72.74613189697266
v 36.75 425 63.65286636352539
v 31.5 450 54.55960083007812
v 26.25 475 45.46633529663086
v 21 500 36.37306594848633
v 15.75 525 27.27980041503906
v 10.5 550 18.18653297424316
v 5.25 575 9.09326648712158
v 0 200 0
v 37.33333206176758 200 0
v 74.66666412353516 200 0
v 112 200 0
v 98 225 0
v 84 250 0
v 70 275 0
v 56 300 0
v 42 325 0
v 28 350 0
v 14 375 0
v 0 400 0
v 18.66666603088379 200 -32.33161544799805
v 37.33333206176758 200 -64.66323089599609
v 56 200 -96.99484252929688
v 49 225 -84.87049102783203
v 42 250 -72.74613189697266
v 35 275 -60.62177658081055
v 28 300 -48.49742126464844
v 21 325 -36.37306594848633
v 14 350 -24.24871063232422
v 7 375 -12.12435531616211
v -18.66666603088379 200 -32.33161544799805
v -37.33333206176758 200 -64.66323089599609
v -56 200 -96.99484252929688
v -49 225 -84.87049102783203
v -42 250 -72.74613189697266
v -35 275 -60.62177658081055
v -28 300 -48.49742126464844
v -21 325 -36.37306594848633
v -14 350 -24.24871063232422
v -7 375 -12.12435531616211
v -37.33333206176758 200 -0
v -74.66666412353516 200 -0.00000000000001
v -112 200 -0.00000000000001
v -98 225 -0.00000000000001
v -84 250 -0.00000000000001
v -70 275 -0.00000000000001
v -56 300 -0.00000000000001
v -42 325 -0.00000000000001
v -28 350 -0
v -14 375 -0
v -18.66666603088379 200 32.33161544799805
v -37.33333206176758 200 64.66323089599609
v -56 200 96.99484252929688
v -49 225 84.87049102783203
v -42 250 72.74613189697266
v -35 275 60.62177658081055
v -28 300 48.49742126464844
v -21 325 36.37306594848633
v -14 350 24.24871063232422
v -7 375 12.12435531616211
v 18.66666603088379 200 32.33161544799805
v 37.33333206176758 200 64.66323089599609
v 56 200 96.99484252929688
v 49 225 84.87049102783203
v 42 250 72.74613189697266
v 35 275 60.62177658081055
v 28 300 48.49742126464844
v 21 325 36.37306594848633
v 14 350 24.24871063232422
v 7 375 12.12435531616211
v 0 -0.00000000000006 0
v 10 -0.00000000000006 0
v 10 200 0
v 6.23489809036255 -0.00000000000006 -7.81831502914429
v 6.23489809036255 200 -7.81831502914429
v -2.22520923614502 -0.00000000000006 -9.7492790222168
v -2.22520923614502 200 -9.7492790222168
v -9.00968837738037 -0.00000000000006 -4.33883762359619
v -9.00968837738037 200 -4.33883762359619
v -9.00968837738037 -0.00000000000006 4.33883762359619
v -9.00968837738037 200 4.33883762359619
v -2.22520923614502 -0.00000000000006 9.7492790222168
v -2.22520923614502 200 9.7492790222168
v 6.23489809036255 -0.00000000000006 7.81831502914429
v 6.23489809036255 200 7.81831502914429
# 139 vertices

vn 0 -1 0
vn 0 0 0
vn 0.81386029720306 0.34182131290436 -0.46988248825073
vn 0.81386035680771 0.34182134270668 -0.46988245844841
vn 0.81386029720306 0.341821372509 -0.46988248825073
vn 0.81386029720306 0.34182134270668 -0.46988248825073
vn 0 0.34182131290436 -0.93976497650146
vn 0 0.341821372509 -0.93976497650146
vn 0 0.34182134270668 -0.93976497650146
vn -0.81386029720306 0.341821372509 -0.46988248825073
vn -0.81386029720306 0.34182134270668 -0.46988248825073
vn -0.81386029720306 0.34182131290436 0.46988248825073
vn -0.81386035680771 0.34182134270668 0.46988245844841
vn -0.81386029720306 0.341821372509 0.46988248825073
vn -0.81386029720306 0.34182134270668 0.46988248825073
vn 0 0.34182131290436 0.93976497650146
vn 0 0.341821372509 0.93976497650146
vn 0 0.34182134270668 0.93976497650146
vn 0.81386029720306 0.341821372509 0.46988248825073
vn 0.81386029720306 0.34182134270668 0.46988248825073
vn 0.77922344207764 0.43636509776115 -0.44988483190536
vn 0.77922344207764 0.43636512756348 -0.44988483190536
vn 0.77922338247299 0.43636512756348 -0.44988483190536
vn 0.77922338247299 0.43636509776115 -0.44988483190536
vn 0.77922344207764 0.43636509776115 -0.44988486170769
vn 0 0.43636494874954 -0.89976978302002
vn 0 0.43636506795883 -0.89976972341537
vn 0 0.43636518716812 -0.89976966381073
vn 0 0.43636512756348 -0.89976966381073
vn 0 0.43636509776115 -0.89976966381073
vn 0 0.43636509776115 -0.89976972341537
vn -0.77922344207764 0.43636503815651 -0.44988489151001
vn -0.77922338247299 0.43636506795883 -0.44988486170769
vn -0.77922338247299 0.43636509776115 -0.44988483190536
vn -0.77922344207764 0.43636512756348 -0.44988483190536
vn -0.77922344207764 0.43636509776115 -0.44988486170769
vn -0.77922344207764 0.43636509776115 0.44988483190536
vn -0.77922344207764 0.43636512756348 0.44988483190536
vn -0.77922338247299 0.43636512756348 0.44988483190536
vn -0.77922338247299 0.43636509776115 0.44988483190536
vn -0.77922344207764 0.43636509776115 0.44988486170769
vn 0 0.43636494874954 0.89976978302002
vn 0 0.43636506795883 0.89976972341537
vn 0 0.43636518716812 0.89976966381073
vn 0 0.43636512756348 0.89976966381073
vn 0 0.43636509776115 0.89976966381073
vn 0 0.43636509776115 0.89976972341537
vn 0.77922344207764 0.43636503815651 0.44988489151001
vn 0.77922338247299 0.43636506795883 0.44988486170769
vn 0.77922338247299 0.43636509776115 0.44988483190536
vn 0.77922344207764 0.43636512756348 0.44988483190536
vn 0.77922344207764 0.43636509776115 0.44988486170769
vn 0.90096884965897 0 -0.43388372659683
vn 0 1 0
vn 0.22252088785172 0 -0.97492790222168
vn -0.62348973751068 0 -0.78183150291443
vn -1 0 0
vn -0.62348973751068 0 0.78183150291443
vn 0.22252088785172 0 0.97492790222168
vn 0.90096884965897 0 0.43388372659683
# 60 normals

vt 0.5 0.5 0
vt 0.33333334326744 0.5 0
vt 0.41666665673256 0.64433759450912 0
vt 0.16666667163372 0.5 0
vt 0.33333334326744 0.7886751294136 0
vt 0 0.5 0
vt 0.25 0.93301272392273 0
vt 0 0 0
vt 0 0.125 0
vt 0.16666667163372 0.125 0
vt 0.16666667163372 0 0
vt 0 0.25 0
vt 0.16666667163372 0.25 0
vt 0 0.375 0
vt 0.16666667163372 0.375 0
vt 0 0.625 0
vt 0.16666667163372 0.625 0
vt 0 0.75 0
vt 0.16666667163372 0.75 0
vt 0 0.875 0
vt 0.16666667163372 0.875 0
vt 0 1 0
vt 0.16666667163372 1 0
vt 0.58333331346512 0.64433759450912 0
vt 0.66666668653488 0.7886751294136 0
vt 0.75 0.93301272392273 0
vt 0.33333334326744 0.125 0
vt 0.33333334326744 0 0
vt 0.33333334326744 0.25 0
vt 0.33333334326744 0.375 0
vt 0.33333334326744 0.625 0
vt 0.33333334326744 0.75 0
vt 0.33333334326744 0.875 0
vt 0.33333334326744 1 0
vt 0.66666668653488 0.5 0
vt 0.83333331346512 0.5 0
vt 1 0.5 0
vt 0.5 0.125 0
vt 0.5 0 0
vt 0.5 0.25 0
vt 0.5 0.375 0
vt 0.5 0.625 0
vt 0.5 0.75 0
vt 0.5 0.875 0
vt 0.5 1 0
vt 0.58333331346512 0.35566246509552 0
vt 0.66666668653488 0.21132493019104 0
vt 0.75 0.06698727607727 0
vt 0.66666668653488 0.125 0
vt 0.66666668653488 0 0
vt 0.66666668653488 0.25 0
vt 0.66666668653488 0.375 0
vt 0.66666668653488 0.625 0
vt 0.66666668653488 0.75 0
vt 0.66666668653488 0.875 0
vt 0.66666668653488 1 0
vt 0.41666665673256 0.35566246509552 0
vt 0.33333334326744 0.21132493019104 0
vt 0.25 0.06698727607727 0
vt 0.83333331346512 0.125 0
vt 0.83333331346512 0 0
vt 0.83333331346512 0.25 0
vt 0.83333331346512 0.375 0
vt 0.83333331346512 0.625 0
vt 0.83333331346512 0.75 0
vt 0.83333331346512 0.875 0
vt 0.83333331346512 1 0
vt 1 0.125 0
vt 1 0 0
vt 1 0.25 0
vt 1 0.375 0
vt 1 0.625 0
vt 1 0.75 0
vt 1 0.875 0
vt 1 1 0
vt 0.18825510144234 0.89091575145721 0
vt 0.14285714924335 1 0
vt 0.14285714924335 0 0
vt 0.81174492835999 0.89091575145721 0
vt 0.61126047372818 0.98746395111084 0
vt 0.28571429848671 1 0
vt 0.28571429848671 0 0
vt 0.38873952627182 0.98746395111084 0
vt 0.95048445463181 0.71694189310074 0
vt 0.4285714328289 1 0
vt 0.4285714328289 0 0
vt 0.04951556771994 0.71694189310074 0
vt 0.95048445463181 0.28305816650391 0
vt 0.57142859697342 1 0
vt 0.57142859697342 0 0
vt 0.04951556771994 0.28305816650391 0
vt 0.61126047372818 0.01253604888916 0
vt 0.71428573131561 1 0
vt 0.71428573131561 0 0
vt 0.38873952627182 0.01253604888916 0
vt 0.18825510144234 0.10908424854279 0
vt 0.85714286565781 1 0
vt 0.85714286565781 0 0
vt 0.81174492835999 0.10908424854279 0
# 99 texture coordinates

o Cone.2
usemtl default
f 13/3/1 2/2/1 1/1/1
f 13/3/1 14/5/1 3/4/1 2/2/1
f 14/5/1 15/7/1 4/6/1 3/4/1
f 15/11/3 16/10/3 5/9/3 4/8/3
f 16/10/3 17/13/4 6/12/4 5/9/3
f 17/13/4 18/15/5 7/14/5 6/12/4
f 18/15/5 19/4/5 8/6/5 7/14/5
f 19/4/5 20/17/3 9/16/3 8/6/5
f 20/17/3 21/19/3 10/18/3 9/16/3
f 21/19/3 22/21/6 11/20/6 10/18/3
f 22/21/6 12/23/6 12/22/6 11/20/6
f 23/24/1 13/3/1 1/1/1
f 23/24/1 24/25/1 14/5/1 13/3/1
f 24/25/1 25/26/1 15/7/1 14/5/1
f 25/28/7 26/27/7 16/10/7 15/11/7
f 26/27/7 27/29/7 17/13/7 16/10/7
f 27/29/7 28/30/8 18/15/8 17/13/7
f 28/30/8 29/2/8 19/4/8 18/15/8
f 29/2/8 30/31/9 20/17/9 19/4/8
f 30/31/9 31/32/9 21/19/9 20/17/9
f 31/32/9 32/33/7 22/21/7 21/19/9
f 32/33/7 12/34/9 12/23/9 22/21/7
f 33/35/1 23/24/1 1/1/1
f 33/35/1 34/36/1 24/25/1 23/24/1
f 34/36/1 35/37/1 25/26/1 24/25/1
f 35/39/10 36/38/10 26/27/10 25/28/10
f 36/38/10 37/40/10 27/29/10 26/27/10
f 37/40/10 38/41/10 28/30/10 27/29/10
f 38/41/10 39/1/10 29/2/10 28/30/10
f 39/1/10 40/42/11 30/31/11 29/2/10
f 40/42/11 41/43/11 31/32/11 30/31/11
f 41/43/11 42/44/11 32/33/11 31/32/11
f 42/44/11 12/45/11 12/34/11 32/33/11
f 43/46/1 33/35/1 1/1/1
f 43/46/1 44/47/1 34/36/1 33/35/1
f 44/47/1 45/48/1 35/37/1 34/36/1
f 45/50/12 46/49/12 36/38/12 35/39/12
f 46/49/12 47/51/13 37/40/13 36/38/12
f 47/51/13 48/52/14 38/41/14 37/40/13
f 48/52/14 49/35/14 39/1/14 38/41/14
f 49/35/14 50/53/12 40/42/12 39/1/14
f 50/53/12 51/54/12 41/43/12 40/42/12
f 51/54/12 52/55/15 42/44/15 41/43/12
f 52/55/15 12/56/15 12/45/15 42/44/15
f 53/57/1 43/46/1 1/1/1
f 53/57/1 54/58/1 44/47/1 43/46/1
f 54/58/1 55/59/1 45/48/1 44/47/1
f 55/61/16 56/60/16 46/49/16 45/50/16
f 56/60/16 57/62/16 47/51/16 46/49/16
f 57/62/16 58/63/17 48/52/17 47/51/16
f 58/63/17 59/36/17 49/35/17 48/52/17
f 59/36/17 60/64/18 50/53/18 49/35/17
f 60/64/18 61/65/18 51/54/18 50/53/18
f 61/65/18 62/66/16 52/55/16 51/54/18
f 62/66/16 12/67/18 12/56/18 52/55/16
f 2/2/1 53/57/1 1/1/1
f 2/2/1 3/4/1 54/58/1 53/57/1
f 3/4/1 4/6/1 55/59/1 54/58/1
f 4/69/19 5/68/19 56/60/19 55/61/19
f 5/68/19 6/70/19 57/62/19 56/60/19
f 6/70/19 7/71/19 58/63/19 57/62/19
f 7/71/19 8/37/19 59/36/19 58/63/19
f 8/37/19 9/72/20 60/64/20 59/36/19
f 9/72/20 10/73/20 61/65/20 60/64/20
f 10/73/20 11/74/20 62/66/20 61/65/20
f 11/74/20 12/75/20 12/67/20 62/66/20
f 75/3/1 64/2/1 63/1/1
f 75/3/1 76/5/1 65/4/1 64/2/1
f 76/5/1 77/7/1 66/6/1 65/4/1
f 77/11/21 78/10/22 67/9/22 66/8/21
f 78/10/22 79/13/23 68/12/23 67/9/22
f 79/13/23 80/15/21 69/14/21 68/12/23
f 80/15/21 81/4/21 70/6/21 69/14/21
f 81/4/21 82/17/22 71/16/22 70/6/21
f 82/17/22 83/19/24 72/18/24 71/16/22
f 83/19/24 84/21/24 73/20/24 72/18/24
f 84/21/24 74/23/25 74/22/25 73/20/24
f 85/24/1 75/3/1 63/1/1
f 85/24/1 86/25/1 76/5/1 75/3/1
f 86/25/1 87/26/1 77/7/1 76/5/1
f 87/28/26 88/27/27 78/10/27 77/11/26
f 88/27/27 89/29/28 79/13/28 78/10/27
f 89/29/28 90/30/29 80/15/29 79/13/28
f 90/30/29 91/2/29 81/4/29 80/15/29
f 91/2/29 92/31/29 82/17/29 81/4/29
f 92/31/29 93/32/29 83/19/29 82/17/29
f 93/32/29 94/33/30 84/21/30 83/19/29
f 94/33/30 74/34/31 74/23/31 84/21/30
f 95/35/1 85/24/1 63/1/1
f 95/35/1 96/36/1 86/25/1 85/24/1
f 96/36/1 97/37/1 87/26/1 86/25/1
f 97/39/32 98/38/33 88/27/33 87/28/32
f 98/38/33 99/40/34 89/29/34 88/27/33
f 99/40/34 100/41/35 90/30/35 89/29/34
f 100/41/35 101/1/35 91/2/35 90/30/35
f 101/1/35 102/42/34 92/31/34 91/2/35
f 102/42/34 103/43/34 93/32/34 92/31/34
f 103/43/34 104/44/36 94/33/36 93/32/34
f 104/44/36 74/45/36 74/34/36 94/33/36
f 105/46/1 95/35/1 63/1/1
f 105/46/1 106/47/1 96/36/1 95/35/1
f 106/47/1 107/48/1 97/37/1 96/36/1
f 107/50/37 108/49/38 98/38/38 97/39/37
f 108/49/38 109/51/39 99/40/39 98/38/38
f 109/51/39 110/52/37 100/41/37 99/40/39
f 110/52/37 111/35/37 101/1/37 100/41/37
f 111/35/37 112/53/38 102/42/38 101/1/37
f 112/53/38 113/54/40 103/43/40 102/42/38
f 113/54/40 114/55/40 104/44/40 103/43/40
f 114/55/40 74/56/41 74/45/41 104/44/40
f 115/57/1 105/46/1 63/1/1
f 115/57/1 116/58/1 106/47/1 105/46/1
f 116/58/1 117/59/1 107/48/1 106/47/1
f 117/61/42 118/60/43 108/49/43 107/50/42
f 118/60/43 119/62/44 109/51/44 108/49/43
f 119/62/44 120/63/45 110/52/45 109/51/44
f 120/63/45 121/36/45 111/35/45 110/52/45
f 121/36/45 122/64/45 112/53/45 111/35/45
f 122/64/45 123/65/45 113/54/45 112/53/45
f 123/65/45 124/66/46 114/55/46 113/54/45
f 124/66/46 74/67/47 74/56/47 114/55/46
f 64/2/1 115/57/1 63/1/1
f 64/2/1 65/4/1 116/58/1 115/57/1
f 65/4/1 66/6/1 117/59/1 116/58/1
f 66/69/48 67/68/49 118/60/49 117/61/48
f 67/68/49 68/70/50 119/62/50 118/60/49
f 68/70/50 69/71/51 120/63/51 119/62/50
f 69/71/51 70/37/51 121/36/51 120/63/51
f 70/37/51 71/72/50 122/64/50 121/36/51
f 71/72/50 72/73/50 123/65/50 122/64/50
f 72/73/50 73/74/52 124/66/52 123/65/50
f 73/74/52 74/75/52 74/67/52 124/66/52
f 128/76/1 126/6/1 125/1/1
f 128/78/53 129/77/53 127/22/53 126/8/53
f 129/79/54 63/1/54 127/37/54
f 130/80/1 128/76/1 125/1/1
f 130/82/55 131/81/55 129/77/55 128/78/55
f 131/83/54 63/1/54 129/79/54
f 132/84/1 130/80/1 125/1/1
f 132/86/56 133/85/56 131/81/56 130/82/56
f 133/87/54 63/1/54 131/83/54
f 134/88/1 132/84/1 125/1/1
f 134/90/57 135/89/57 133/85/57 132/86/57
f 135/91/54 63/1/54 133/87/54
f 136/92/1 134/88/1 125/1/1
f 136/94/58 137/93/58 135/89/58 134/90/58
f 137/95/54 63/1/54 135/91/54
f 138/96/1 136/92/1 125/1/1
f 138/98/59 139/97/59 137/93/59 136/94/59
f 139/99/54 63/1/54 137/95/54
f 126/6/1 138/96/1 125/1/1
f 126/69/60 127/75/60 139/97/60 138/98/60
f 127/37/54 63/1/54 139/99/54

